<?xml version="1.0" encoding="UTF-8" standalone="no"?>
<!DOCTYPE svg PUBLIC "-//W3C//DTD SVG 1.1//EN"
 "http://www.w3.org/Graphics/SVG/1.1/DTD/svg11.dtd">
<!-- Generated by graphviz version 2.44.1 (20200629.0846)
 -->
<!-- Title: g Pages: 1 -->
<svg width="2158pt" height="1810pt"
 viewBox="0.00 0.00 2158.00 1809.60" xmlns="http://www.w3.org/2000/svg" xmlns:xlink="http://www.w3.org/1999/xlink">
<g id="graph0" class="graph" transform="scale(1 1) rotate(0) translate(4 1805.6)">
<title>g</title>
<polygon fill="white" stroke="transparent" points="-4,4 -4,-1805.6 2154,-1805.6 2154,4 -4,4"/>
<g id="clust1" class="cluster">
<title>cluster_1196949968</title>
<polygon fill="#ececec" stroke="black" points="8,-8 8,-1793.6 2142,-1793.6 2142,-8 8,-8"/>
<text text-anchor="middle" x="56.8" y="-1777" font-family="Times New Roman,serif" font-size="14.00">carbonaracode</text>
</g>
<g id="clust2" class="cluster">
<title>cluster_1776094584</title>
<polygon fill="#d8d8d8" stroke="black" points="16,-16 16,-1760.8 2134,-1760.8 2134,-16 16,-16"/>
<text text-anchor="middle" x="79.98" y="-1744.2" font-family="Times New Roman,serif" font-size="14.00">digibookycarbonara</text>
</g>
<!-- AbstractMember1296305264 -->
<g id="node1" class="node">
<title>AbstractMember1296305264</title>
<polygon fill="#ffffff" stroke="transparent" points="2125.5,-697.2 1948.5,-697.2 1948.5,-551.2 2125.5,-551.2 2125.5,-697.2"/>
<text text-anchor="start" x="1954" y="-679.6" font-family="Times New Roman,serif" font-size="14.00">(C)AbstractMember</text>
<text text-anchor="start" x="1954" y="-655.6" font-family="Times New Roman,serif" font-size="14.00">&#45; &#160;&#160;email: String [0..1]</text>
<text text-anchor="start" x="1954" y="-631.6" font-family="Times New Roman,serif" font-size="14.00">&#45; &#160;&#160;inss: String [0..1]</text>
<text text-anchor="start" x="1954" y="-607.6" font-family="Times New Roman,serif" font-size="14.00">&#45; &#160;&#160;name: Name [0..1]</text>
<text text-anchor="start" x="1953.52" y="-583.6" font-family="Times New Roman,serif" font-size="14.00">&#45; validateEmail(email: String)</text>
<text text-anchor="start" x="1954" y="-559.6" font-family="Times New Roman,serif" font-size="14.00">&#45; validateInss(inss: String)</text>
<polygon fill="black" stroke="black" points="1949,-672.2 1949,-672.2 2126,-672.2 2126,-672.2 1949,-672.2"/>
<polygon fill="black" stroke="black" points="1949,-600.2 1949,-600.2 2126,-600.2 2126,-600.2 1949,-600.2"/>
<polygon fill="none" stroke="black" points="1948.5,-551.2 1948.5,-697.2 2125.5,-697.2 2125.5,-551.2 1948.5,-551.2"/>
</g>
<!-- Librarian2052539930 -->
<g id="node17" class="node">
<title>Librarian2052539930</title>
<polygon fill="#ffffff" stroke="transparent" points="2006,-342.6 1926,-342.6 1926,-306.6 2006,-306.6 2006,-342.6"/>
<text text-anchor="start" x="1930.63" y="-320" font-family="Times New Roman,serif" font-size="14.00">(C)Librarian</text>
<polygon fill="none" stroke="black" points="1926,-311.6 1926,-337.6 2006,-337.6 2006,-311.6 1926,-311.6"/>
</g>
<!-- AbstractMember1296305264&#45;&gt;Librarian2052539930 -->
<g id="edge1" class="edge">
<title>AbstractMember1296305264&#45;&gt;Librarian2052539930</title>
<path fill="none" stroke="black" d="M2030.27,-540.95C2025.9,-487.46 2021,-427.6 2021,-427.6 2021,-427.6 1991.02,-372 1975.33,-342.9"/>
<polygon fill="none" stroke="black" points="2026.81,-541.52 2031.11,-551.2 2033.78,-540.95 2026.81,-541.52"/>
</g>
<!-- Member1296305264 -->
<g id="node18" class="node">
<title>Member1296305264</title>
<polygon fill="#ffffff" stroke="transparent" points="1736,-397.6 1502,-397.6 1502,-251.6 1736,-251.6 1736,-397.6"/>
<text text-anchor="start" x="1507" y="-380" font-family="Times New Roman,serif" font-size="14.00">(C)Member</text>
<text text-anchor="start" x="1507" y="-356" font-family="Times New Roman,serif" font-size="14.00">&#45; &#160;&#160;address: Address [0..1]</text>
<text text-anchor="start" x="1507" y="-332" font-family="Times New Roman,serif" font-size="14.00">&#45; &#160;&#160;lentBookList: List&lt;LentBook&gt; [0..*]</text>
<text text-anchor="start" x="1507" y="-308" font-family="Times New Roman,serif" font-size="14.00">+ addLentBook(lentBook: LentBook)</text>
<text text-anchor="start" x="1507" y="-284" font-family="Times New Roman,serif" font-size="14.00">+ newBuilder(): MemberBuilder</text>
<text text-anchor="start" x="1506.57" y="-260" font-family="Times New Roman,serif" font-size="14.00">+ returnLentBook(lentBook: LentBook)</text>
<polygon fill="black" stroke="black" points="1502,-372.6 1502,-372.6 1736,-372.6 1736,-372.6 1502,-372.6"/>
<polygon fill="black" stroke="black" points="1502,-324.6 1502,-324.6 1736,-324.6 1736,-324.6 1502,-324.6"/>
<polygon fill="none" stroke="black" points="1502,-251.6 1502,-397.6 1736,-397.6 1736,-251.6 1502,-251.6"/>
</g>
<!-- AbstractMember1296305264&#45;&gt;Member1296305264 -->
<g id="edge2" class="edge">
<title>AbstractMember1296305264&#45;&gt;Member1296305264</title>
<path fill="none" stroke="black" d="M1982.01,-542.39C1959.66,-509.56 1939,-479.2 1939,-479.2 1939,-479.2 1763,-461.2 1763,-461.2 1763,-461.2 1730.03,-430.15 1695.64,-397.77"/>
<polygon fill="none" stroke="black" points="1979.19,-544.48 1987.71,-550.78 1984.98,-540.54 1979.19,-544.48"/>
</g>
<!-- Name1718269883 -->
<g id="node21" class="node">
<title>Name1718269883</title>
<polygon fill="#ffffff" stroke="transparent" points="2097.5,-146 1892.5,-146 1892.5,-48 2097.5,-48 2097.5,-146"/>
<text text-anchor="start" x="1898" y="-128.4" font-family="Times New Roman,serif" font-size="14.00">(C)Name</text>
<text text-anchor="start" x="1898" y="-104.4" font-family="Times New Roman,serif" font-size="14.00">&#45; &#160;&#160;firstName: String [0..1]</text>
<text text-anchor="start" x="1898" y="-80.4" font-family="Times New Roman,serif" font-size="14.00">&#45; &#160;&#160;lastName: String [0..1]</text>
<text text-anchor="start" x="1897.53" y="-56.4" font-family="Times New Roman,serif" font-size="14.00">&#45; validateNameField(name: String)</text>
<polygon fill="black" stroke="black" points="1893,-121 1893,-121 2098,-121 2098,-121 1893,-121"/>
<polygon fill="black" stroke="black" points="1893,-73 1893,-73 2098,-73 2098,-73 1893,-73"/>
<polygon fill="none" stroke="black" points="1892.5,-48 1892.5,-146 2097.5,-146 2097.5,-48 1892.5,-48"/>
</g>
<!-- AbstractMember1296305264&#45;&gt;Name1718269883 -->
<g id="edge3" class="edge">
<title>AbstractMember1296305264&#45;&gt;Name1718269883</title>
<path fill="none" stroke="black" d="M2033.32,-551.2C2030.47,-495.43 2027,-427.6 2027,-427.6 2027,-427.6 2015,-239.6 2015,-239.6 2015,-239.6 2008.78,-195.57 2003.28,-156.62"/>
<polygon fill="black" stroke="black" points="2006.69,-155.75 2001.83,-146.33 1999.76,-156.73 2006.69,-155.75"/>
<text text-anchor="middle" x="2040.16" y="-328.8" font-family="Times New Roman,serif" font-size="14.00">name</text>
<text text-anchor="middle" x="2040.16" y="-312" font-family="Times New Roman,serif" font-size="14.00">[0..1]</text>
</g>
<!-- Address1296305264 -->
<g id="node2" class="node">
<title>Address1296305264</title>
<polygon fill="#ffffff" stroke="transparent" points="1845,-170 1605,-170 1605,-24 1845,-24 1845,-170"/>
<text text-anchor="start" x="1610" y="-152.4" font-family="Times New Roman,serif" font-size="14.00">(C)Address</text>
<text text-anchor="start" x="1610" y="-128.4" font-family="Times New Roman,serif" font-size="14.00">&#45; &#160;&#160;city: String [0..1]</text>
<text text-anchor="start" x="1610" y="-104.4" font-family="Times New Roman,serif" font-size="14.00">&#45; &#160;&#160;postalCode: int [1]</text>
<text text-anchor="start" x="1610" y="-80.4" font-family="Times New Roman,serif" font-size="14.00">&#45; &#160;&#160;streetName: String [0..1]</text>
<text text-anchor="start" x="1610" y="-56.4" font-family="Times New Roman,serif" font-size="14.00">&#45; &#160;&#160;streetNumber: int [1]</text>
<text text-anchor="start" x="1609.52" y="-32.4" font-family="Times New Roman,serif" font-size="14.00">&#45; stringIsNotEmptyOrNull(string: String)</text>
<polygon fill="black" stroke="black" points="1605,-145 1605,-145 1845,-145 1845,-145 1605,-145"/>
<polygon fill="black" stroke="black" points="1605,-49 1605,-49 1845,-49 1845,-49 1605,-49"/>
<polygon fill="none" stroke="black" points="1605,-24 1605,-170 1845,-170 1845,-24 1605,-24"/>
</g>
<!-- Author1398452287 -->
<g id="node3" class="node">
<title>Author1398452287</title>
<polygon fill="#ffffff" stroke="transparent" points="950,-158 758,-158 758,-36 950,-36 950,-158"/>
<text text-anchor="start" x="763" y="-140.4" font-family="Times New Roman,serif" font-size="14.00">(C)Author</text>
<text text-anchor="start" x="762.82" y="-116.4" font-family="Times New Roman,serif" font-size="14.00">&#45; &#160;&#160;authorFirstname: String [0..1]</text>
<text text-anchor="start" x="763" y="-92.4" font-family="Times New Roman,serif" font-size="14.00">&#45; &#160;&#160;authorLastname: String [0..1]</text>
<text text-anchor="start" x="763" y="-68.4" font-family="Times New Roman,serif" font-size="14.00">+ authorFirstname(): String</text>
<text text-anchor="start" x="763" y="-44.4" font-family="Times New Roman,serif" font-size="14.00">+ authorLastname(): String</text>
<polygon fill="black" stroke="black" points="758,-133 758,-133 950,-133 950,-133 758,-133"/>
<polygon fill="black" stroke="black" points="758,-85 758,-85 950,-85 950,-85 758,-85"/>
<polygon fill="none" stroke="black" points="758,-36 758,-158 950,-158 950,-36 758,-36"/>
</g>
<!-- Book1398452287 -->
<g id="node4" class="node">
<title>Book1398452287</title>
<polygon fill="#ffffff" stroke="transparent" points="1042.5,-409.6 801.5,-409.6 801.5,-239.6 1042.5,-239.6 1042.5,-409.6"/>
<text text-anchor="start" x="807" y="-392" font-family="Times New Roman,serif" font-size="14.00">(C)Book</text>
<text text-anchor="start" x="807" y="-368" font-family="Times New Roman,serif" font-size="14.00">&#45; &#160;&#160;author: Author [0..1]</text>
<text text-anchor="start" x="807" y="-344" font-family="Times New Roman,serif" font-size="14.00">&#45; &#160;&#160;isbn: String [0..1]</text>
<text text-anchor="start" x="807" y="-320" font-family="Times New Roman,serif" font-size="14.00">&#45; &#160;&#160;summary: String [0..1]</text>
<text text-anchor="start" x="807" y="-296" font-family="Times New Roman,serif" font-size="14.00">&#45; &#160;&#160;title: String [0..1]</text>
<text text-anchor="start" x="807" y="-272" font-family="Times New Roman,serif" font-size="14.00">+ newBuilder(): BookBuilder</text>
<text text-anchor="start" x="806.76" y="-248" font-family="Times New Roman,serif" font-size="14.00">+ newBuilder(book: Book): BookBuilder</text>
<polygon fill="black" stroke="black" points="802,-384.6 802,-384.6 1043,-384.6 1043,-384.6 802,-384.6"/>
<polygon fill="black" stroke="black" points="802,-288.6 802,-288.6 1043,-288.6 1043,-288.6 802,-288.6"/>
<polygon fill="none" stroke="black" points="801.5,-239.6 801.5,-409.6 1042.5,-409.6 1042.5,-239.6 801.5,-239.6"/>
</g>
<!-- Book1398452287&#45;&gt;Author1398452287 -->
<g id="edge4" class="edge">
<title>Book1398452287&#45;&gt;Author1398452287</title>
<path fill="none" stroke="black" d="M896.68,-239.59C889.57,-216.02 881.93,-190.65 875.1,-167.99"/>
<polygon fill="black" stroke="black" points="878.36,-166.69 872.12,-158.12 871.66,-168.71 878.36,-166.69"/>
<text text-anchor="middle" x="907.88" y="-209" font-family="Times New Roman,serif" font-size="14.00">author</text>
<text text-anchor="middle" x="907.88" y="-192.2" font-family="Times New Roman,serif" font-size="14.00">[0..1]</text>
</g>
<!-- LentBook409788394 -->
<g id="node14" class="node">
<title>LentBook409788394</title>
<polygon fill="#ffffff" stroke="transparent" points="1466,-146 1274,-146 1274,-48 1466,-48 1466,-146"/>
<text text-anchor="start" x="1279" y="-128.4" font-family="Times New Roman,serif" font-size="14.00">(C)LentBook</text>
<text text-anchor="start" x="1279" y="-104.4" font-family="Times New Roman,serif" font-size="14.00">&#45; &#160;&#160;dueDate: LocalDate [0..1]</text>
<text text-anchor="start" x="1279" y="-80.4" font-family="Times New Roman,serif" font-size="14.00">&#45; &#160;&#160;lendingID: String [0..1]</text>
<text text-anchor="start" x="1278.67" y="-56.4" font-family="Times New Roman,serif" font-size="14.00">&#45; calculateDueDate(): LocalDate</text>
<polygon fill="black" stroke="black" points="1274,-121 1274,-121 1466,-121 1466,-121 1274,-121"/>
<polygon fill="black" stroke="black" points="1274,-73 1274,-73 1466,-73 1466,-73 1274,-73"/>
<polygon fill="none" stroke="black" points="1274,-48 1274,-146 1466,-146 1466,-48 1274,-48"/>
</g>
<!-- Book1398452287&#45;&gt;LentBook409788394 -->
<g id="edge5" class="edge">
<title>Book1398452287&#45;&gt;LentBook409788394</title>
<path fill="none" stroke="black" d="M1051.68,-258.3C1122.79,-222.49 1209.41,-178.87 1274.33,-146.18"/>
<polygon fill="none" stroke="black" points="1050,-255.22 1042.65,-262.85 1053.15,-261.47 1050,-255.22"/>
</g>
<!-- BookBuilder1923921642 -->
<g id="node5" class="node">
<title>BookBuilder1923921642</title>
<polygon fill="#ffffff" stroke="transparent" points="783,-397.6 631,-397.6 631,-251.6 783,-251.6 783,-397.6"/>
<text text-anchor="start" x="636" y="-380" font-family="Times New Roman,serif" font-size="14.00">(C)BookBuilder</text>
<text text-anchor="start" x="636" y="-356" font-family="Times New Roman,serif" font-size="14.00">&#45; &#160;&#160;author: Author [0..1]</text>
<text text-anchor="start" x="636" y="-332" font-family="Times New Roman,serif" font-size="14.00">&#45; &#160;&#160;isbn: String [0..1]</text>
<text text-anchor="start" x="635.65" y="-308" font-family="Times New Roman,serif" font-size="14.00">&#45; &#160;&#160;summary: String [0..1]</text>
<text text-anchor="start" x="636" y="-284" font-family="Times New Roman,serif" font-size="14.00">&#45; &#160;&#160;title: String [0..1]</text>
<text text-anchor="start" x="636" y="-260" font-family="Times New Roman,serif" font-size="14.00">+ build(): Book</text>
<polygon fill="black" stroke="black" points="631,-372.6 631,-372.6 783,-372.6 783,-372.6 631,-372.6"/>
<polygon fill="black" stroke="black" points="631,-276.6 631,-276.6 783,-276.6 783,-276.6 631,-276.6"/>
<polygon fill="none" stroke="black" points="631,-251.6 631,-397.6 783,-397.6 783,-251.6 631,-251.6"/>
</g>
<!-- BookBuilder1923921642&#45;&gt;Author1398452287 -->
<g id="edge6" class="edge">
<title>BookBuilder1923921642&#45;&gt;Author1398452287</title>
<path fill="none" stroke="black" d="M753.92,-251.6C771.58,-224.49 791.62,-193.74 809.09,-166.92"/>
<polygon fill="black" stroke="black" points="812.15,-168.64 814.67,-158.36 806.28,-164.82 812.15,-168.64"/>
<text text-anchor="middle" x="810.88" y="-209" font-family="Times New Roman,serif" font-size="14.00">author</text>
<text text-anchor="middle" x="810.88" y="-192.2" font-family="Times New Roman,serif" font-size="14.00">[0..1]</text>
</g>
<!-- BookController1398452287 -->
<g id="node6" class="node">
<title>BookController1398452287</title>
<polygon fill="#ffffff" stroke="transparent" points="1144,-1728 678,-1728 678,-1534 1144,-1534 1144,-1728"/>
<text text-anchor="start" x="683" y="-1710.4" font-family="Times New Roman,serif" font-size="14.00">(C)BookController</text>
<text text-anchor="start" x="683" y="-1686.4" font-family="Times New Roman,serif" font-size="14.00">&#45; &#160;&#160;bookService: BookService [0..1]</text>
<text text-anchor="start" x="683" y="-1662.4" font-family="Times New Roman,serif" font-size="14.00">&#45; &#160;&#160;lendingService: LendingService [0..1]</text>
<text text-anchor="start" x="683" y="-1638.4" font-family="Times New Roman,serif" font-size="14.00">+ getBookDetailByIsbn(isbn: String): BookDTO</text>
<text text-anchor="start" x="683" y="-1614.4" font-family="Times New Roman,serif" font-size="14.00">+ lendBook(inss: String, isbn: String): LentBookDTO</text>
<text text-anchor="start" x="683" y="-1590.4" font-family="Times New Roman,serif" font-size="14.00">+ registerNewBook(createBookDTO: CreateBookDTO): BookDTO</text>
<text text-anchor="start" x="683" y="-1566.4" font-family="Times New Roman,serif" font-size="14.00">+ returnBook(inss: String, isbn: String)</text>
<text text-anchor="start" x="682.76" y="-1542.4" font-family="Times New Roman,serif" font-size="14.00">+ searchBooksByIsbn(isbn: String, title: String, author: String): List&lt;BookDTO&gt;</text>
<polygon fill="black" stroke="black" points="678,-1703 678,-1703 1144,-1703 1144,-1703 678,-1703"/>
<polygon fill="black" stroke="black" points="678,-1655 678,-1655 1144,-1655 1144,-1655 678,-1655"/>
<polygon fill="none" stroke="black" points="678,-1534 678,-1728 1144,-1728 1144,-1534 678,-1534"/>
</g>
<!-- BookService1398452287 -->
<g id="node10" class="node">
<title>BookService1398452287</title>
<polygon fill="#ffffff" stroke="transparent" points="922.5,-1464.4 531.5,-1464.4 531.5,-1198.4 922.5,-1198.4 922.5,-1464.4"/>
<text text-anchor="start" x="537" y="-1446.8" font-family="Times New Roman,serif" font-size="14.00">(C)BookService</text>
<text text-anchor="start" x="537" y="-1422.8" font-family="Times New Roman,serif" font-size="14.00">&#45; &#160;&#160;bookMapper: BookMapper [0..1]</text>
<text text-anchor="start" x="537" y="-1398.8" font-family="Times New Roman,serif" font-size="14.00">&#45; &#160;&#160;bookRepository: BookRepository [0..1]</text>
<text text-anchor="start" x="537" y="-1374.8" font-family="Times New Roman,serif" font-size="14.00">&#45; checkAgainstBlankOrNull(in: String...)</text>
<text text-anchor="start" x="537" y="-1350.8" font-family="Times New Roman,serif" font-size="14.00">&#45; checkCopiesLessThanZero(createBookDTO: CreateBookDTO)</text>
<text text-anchor="start" x="537" y="-1326.8" font-family="Times New Roman,serif" font-size="14.00">&#45; checkPriceLessThanZero(createBookDTO: CreateBookDTO)</text>
<text text-anchor="start" x="537" y="-1302.8" font-family="Times New Roman,serif" font-size="14.00">+ getBookByIsbn(id: String): BookDTO</text>
<text text-anchor="start" x="536.76" y="-1278.8" font-family="Times New Roman,serif" font-size="14.00">+ registerNewBook(createBookDTO: CreateBookDTO): BookDTO</text>
<text text-anchor="start" x="537" y="-1254.8" font-family="Times New Roman,serif" font-size="14.00">+ searchBooksByAuthor(author: String): List&lt;BookDTO&gt;</text>
<text text-anchor="start" x="537" y="-1230.8" font-family="Times New Roman,serif" font-size="14.00">+ searchBooksByIsbn(isbn: String): List&lt;BookDTO&gt;</text>
<text text-anchor="start" x="537" y="-1206.8" font-family="Times New Roman,serif" font-size="14.00">+ searchBooksByTitle(title: String): List&lt;BookDTO&gt;</text>
<polygon fill="black" stroke="black" points="532,-1439.4 532,-1439.4 923,-1439.4 923,-1439.4 532,-1439.4"/>
<polygon fill="black" stroke="black" points="532,-1391.4 532,-1391.4 923,-1391.4 923,-1391.4 532,-1391.4"/>
<polygon fill="none" stroke="black" points="531.5,-1198.4 531.5,-1464.4 922.5,-1464.4 922.5,-1198.4 531.5,-1198.4"/>
</g>
<!-- BookController1398452287&#45;&gt;BookService1398452287 -->
<g id="edge7" class="edge">
<title>BookController1398452287&#45;&gt;BookService1398452287</title>
<path fill="none" stroke="black" d="M851.51,-1533.79C839.57,-1514.47 826.79,-1493.8 814.13,-1473.32"/>
<polygon fill="black" stroke="black" points="816.95,-1471.23 808.71,-1464.56 811,-1474.91 816.95,-1471.23"/>
<text text-anchor="middle" x="869.99" y="-1503.4" font-family="Times New Roman,serif" font-size="14.00">bookService</text>
<text text-anchor="middle" x="869.99" y="-1486.6" font-family="Times New Roman,serif" font-size="14.00">[0..1]</text>
</g>
<!-- LendingService409788394 -->
<g id="node12" class="node">
<title>LendingService409788394</title>
<polygon fill="#ffffff" stroke="transparent" points="1253,-1416.4 941,-1416.4 941,-1246.4 1253,-1246.4 1253,-1416.4"/>
<text text-anchor="start" x="946" y="-1398.8" font-family="Times New Roman,serif" font-size="14.00">(C)LendingService</text>
<text text-anchor="start" x="946" y="-1374.8" font-family="Times New Roman,serif" font-size="14.00">&#45; &#160;&#160;lendingRepository: LendingRepository [0..1]</text>
<text text-anchor="start" x="946" y="-1350.8" font-family="Times New Roman,serif" font-size="14.00">&#45; &#160;&#160;lendingSystem: LendingSystem [0..1]</text>
<text text-anchor="start" x="946" y="-1326.8" font-family="Times New Roman,serif" font-size="14.00">&#45; &#160;&#160;lentBookMapper: LentBookMapper [0..1]</text>
<text text-anchor="start" x="946" y="-1302.8" font-family="Times New Roman,serif" font-size="14.00">+ getLendingIdByIsbn(lentBookIsbn: String): String</text>
<text text-anchor="start" x="945.67" y="-1278.8" font-family="Times New Roman,serif" font-size="14.00">+ lendBook(isbn: String, inss: String): LentBookDTO</text>
<text text-anchor="start" x="946" y="-1254.8" font-family="Times New Roman,serif" font-size="14.00">+ returnBook(isbn: String)</text>
<polygon fill="black" stroke="black" points="941,-1391.4 941,-1391.4 1253,-1391.4 1253,-1391.4 941,-1391.4"/>
<polygon fill="black" stroke="black" points="941,-1319.4 941,-1319.4 1253,-1319.4 1253,-1319.4 941,-1319.4"/>
<polygon fill="none" stroke="black" points="941,-1246.4 941,-1416.4 1253,-1416.4 1253,-1246.4 941,-1246.4"/>
</g>
<!-- BookController1398452287&#45;&gt;LendingService409788394 -->
<g id="edge8" class="edge">
<title>BookController1398452287&#45;&gt;LendingService409788394</title>
<path fill="none" stroke="black" d="M971.13,-1533.79C992.85,-1499.03 1017.32,-1459.89 1038.87,-1425.41"/>
<polygon fill="black" stroke="black" points="1041.95,-1427.09 1044.28,-1416.75 1036.01,-1423.38 1041.95,-1427.09"/>
<text text-anchor="middle" x="1039.99" y="-1503.4" font-family="Times New Roman,serif" font-size="14.00">lendingService</text>
<text text-anchor="middle" x="1039.99" y="-1486.6" font-family="Times New Roman,serif" font-size="14.00">[0..1]</text>
</g>
<!-- BookDTO1398452287 -->
<g id="node7" class="node">
<title>BookDTO1398452287</title>
<polygon fill="#ffffff" stroke="transparent" points="216,-709.2 24,-709.2 24,-539.2 216,-539.2 216,-709.2"/>
<text text-anchor="start" x="29" y="-691.6" font-family="Times New Roman,serif" font-size="14.00">(C)BookDTO</text>
<text text-anchor="start" x="28.82" y="-667.6" font-family="Times New Roman,serif" font-size="14.00">&#45; &#160;&#160;authorFirstname: String [0..1]</text>
<text text-anchor="start" x="29" y="-643.6" font-family="Times New Roman,serif" font-size="14.00">&#45; &#160;&#160;authorLastname: String [0..1]</text>
<text text-anchor="start" x="29" y="-619.6" font-family="Times New Roman,serif" font-size="14.00">&#45; &#160;&#160;isbn: String [0..1]</text>
<text text-anchor="start" x="29" y="-595.6" font-family="Times New Roman,serif" font-size="14.00">&#45; &#160;&#160;summary: String [0..1]</text>
<text text-anchor="start" x="29" y="-571.6" font-family="Times New Roman,serif" font-size="14.00">&#45; &#160;&#160;title: String [0..1]</text>
<text text-anchor="start" x="29" y="-547.6" font-family="Times New Roman,serif" font-size="14.00">+ retrieveAuthor(): Author</text>
<polygon fill="black" stroke="black" points="24,-684.2 24,-684.2 216,-684.2 216,-684.2 24,-684.2"/>
<polygon fill="black" stroke="black" points="24,-564.2 24,-564.2 216,-564.2 216,-564.2 24,-564.2"/>
<polygon fill="none" stroke="black" points="24,-539.2 24,-709.2 216,-709.2 216,-539.2 24,-539.2"/>
</g>
<!-- BookMapper1398452287 -->
<g id="node8" class="node">
<title>BookMapper1398452287</title>
<polygon fill="#ffffff" stroke="transparent" points="323.5,-1044.8 24.5,-1044.8 24.5,-922.8 323.5,-922.8 323.5,-1044.8"/>
<text text-anchor="start" x="30" y="-1027.2" font-family="Times New Roman,serif" font-size="14.00">(C)BookMapper</text>
<text text-anchor="start" x="30" y="-1003.2" font-family="Times New Roman,serif" font-size="14.00">+ toDTO(book: Book): BookDTO</text>
<text text-anchor="start" x="29.75" y="-979.2" font-family="Times New Roman,serif" font-size="14.00">+ toDTO(bookList: List&lt;Book&gt;): List&lt;BookDTO&gt;</text>
<text text-anchor="start" x="30" y="-955.2" font-family="Times New Roman,serif" font-size="14.00">+ toEntity(bookDTO: BookDTO): Book</text>
<text text-anchor="start" x="30" y="-931.2" font-family="Times New Roman,serif" font-size="14.00">+ toEntity(bookDTO: CreateBookDTO): Book</text>
<polygon fill="black" stroke="black" points="25,-1019.8 25,-1019.8 324,-1019.8 324,-1019.8 25,-1019.8"/>
<polygon fill="none" stroke="black" points="24.5,-922.8 24.5,-1044.8 323.5,-1044.8 323.5,-922.8 24.5,-922.8"/>
</g>
<!-- BookMapper1398452287&#45;&gt;BookDTO1398452287 -->
<g id="edge9" class="edge">
<title>BookMapper1398452287&#45;&gt;BookDTO1398452287</title>
<path fill="none" stroke="black" d="M154.37,-922.48C139.38,-876.42 121.28,-820.8 121.28,-820.8 121.28,-820.8 120.95,-769.6 120.62,-719.59"/>
<polygon fill="black" stroke="black" points="124.12,-719.26 120.55,-709.29 117.12,-719.31 124.12,-719.26"/>
<text text-anchor="middle" x="204.86" y="-799.8" font-family="Times New Roman,serif" font-size="14.00">toEntity() &#45;&gt; retrieveAuthor()</text>
</g>
<!-- BookRepository1398452287 -->
<g id="node9" class="node">
<title>BookRepository1398452287</title>
<polygon fill="#ffffff" stroke="transparent" points="995,-745.2 629,-745.2 629,-503.2 995,-503.2 995,-745.2"/>
<text text-anchor="start" x="634" y="-727.6" font-family="Times New Roman,serif" font-size="14.00">(C)BookRepository</text>
<text text-anchor="start" x="634" y="-703.6" font-family="Times New Roman,serif" font-size="14.00">&#45; &#160;&#160;bookMap: Map&lt;String, Book&gt; [0..*]</text>
<text text-anchor="start" x="634" y="-679.6" font-family="Times New Roman,serif" font-size="14.00">+ addBook(book: Book)</text>
<text text-anchor="start" x="634" y="-655.6" font-family="Times New Roman,serif" font-size="14.00">&#45; checkInMap(isbn: String)</text>
<text text-anchor="start" x="634" y="-631.6" font-family="Times New Roman,serif" font-size="14.00">&#45; checkNotNull(id: String)</text>
<text text-anchor="start" x="634" y="-607.6" font-family="Times New Roman,serif" font-size="14.00">+ createAndInitializeBookMap(): Map&lt;String, Book&gt;</text>
<text text-anchor="start" x="634" y="-583.6" font-family="Times New Roman,serif" font-size="14.00">+ getBookByIsbn(isbn: String): Book</text>
<text text-anchor="start" x="633.55" y="-559.6" font-family="Times New Roman,serif" font-size="14.00">+ searchBooksByAuthor(authorNamePart: String): List&lt;Book&gt;</text>
<text text-anchor="start" x="634" y="-535.6" font-family="Times New Roman,serif" font-size="14.00">+ searchBooksByIsbn(isbnPart: String): List&lt;Book&gt;</text>
<text text-anchor="start" x="634" y="-511.6" font-family="Times New Roman,serif" font-size="14.00">+ searchBooksByTitle(titlePart: String): List&lt;Book&gt;</text>
<polygon fill="black" stroke="black" points="629,-720.2 629,-720.2 995,-720.2 995,-720.2 629,-720.2"/>
<polygon fill="black" stroke="black" points="629,-696.2 629,-696.2 995,-696.2 995,-696.2 629,-696.2"/>
<polygon fill="none" stroke="black" points="629,-503.2 629,-745.2 995,-745.2 995,-503.2 629,-503.2"/>
</g>
<!-- BookRepository1398452287&#45;&gt;Book1398452287 -->
<g id="edge10" class="edge">
<title>BookRepository1398452287&#45;&gt;Book1398452287</title>
<path fill="none" stroke="black" d="M856.42,-503.01C866.73,-475.14 877.54,-445.88 887.35,-419.33"/>
<polygon fill="black" stroke="black" points="890.74,-420.28 890.92,-409.68 884.17,-417.85 890.74,-420.28"/>
<text text-anchor="middle" x="909.83" y="-448.6" font-family="Times New Roman,serif" font-size="14.00">bookMap</text>
<text text-anchor="middle" x="909.83" y="-431.8" font-family="Times New Roman,serif" font-size="14.00">[0..*]</text>
</g>
<!-- BookService1398452287&#45;&gt;BookMapper1398452287 -->
<g id="edge11" class="edge">
<title>BookService1398452287&#45;&gt;BookMapper1398452287</title>
<path fill="none" stroke="black" d="M531.44,-1230.34C432.46,-1179.69 333,-1128.8 333,-1128.8 333,-1128.8 289.46,-1089.37 247.95,-1051.78"/>
<polygon fill="black" stroke="black" points="250.27,-1049.15 240.51,-1045.03 245.57,-1054.34 250.27,-1049.15"/>
<text text-anchor="middle" x="463.77" y="-1167.8" font-family="Times New Roman,serif" font-size="14.00">bookMapper</text>
<text text-anchor="middle" x="463.77" y="-1151" font-family="Times New Roman,serif" font-size="14.00">[0..1]</text>
</g>
<!-- BookService1398452287&#45;&gt;BookRepository1398452287 -->
<g id="edge12" class="edge">
<title>BookService1398452287&#45;&gt;BookRepository1398452287</title>
<path fill="none" stroke="black" d="M746.39,-1198.2C747.98,-1187.32 749,-1180.4 749,-1180.4 749,-1180.4 763.56,-838.8 763.56,-838.8 763.56,-838.8 772.38,-799.91 782.49,-755.32"/>
<polygon fill="black" stroke="black" points="785.94,-755.95 784.74,-745.42 779.11,-754.4 785.94,-755.95"/>
<text text-anchor="middle" x="807.72" y="-988" font-family="Times New Roman,serif" font-size="14.00">bookRepository</text>
<text text-anchor="middle" x="807.72" y="-971.2" font-family="Times New Roman,serif" font-size="14.00">[0..1]</text>
</g>
<!-- LendingRepository409788394 -->
<g id="node11" class="node">
<title>LendingRepository409788394</title>
<polygon fill="#ffffff" stroke="transparent" points="1563.5,-685.2 1176.5,-685.2 1176.5,-563.2 1563.5,-563.2 1563.5,-685.2"/>
<text text-anchor="start" x="1182" y="-667.6" font-family="Times New Roman,serif" font-size="14.00">(C)LendingRepository</text>
<text text-anchor="start" x="1182" y="-643.6" font-family="Times New Roman,serif" font-size="14.00">&#45; &#160;&#160;lendingMap: Map&lt;String, LentBook&gt; [0..*]</text>
<text text-anchor="start" x="1181.85" y="-619.6" font-family="Times New Roman,serif" font-size="14.00">+ addLentBook(lendingId: String, lentBook: LentBook): LentBook</text>
<text text-anchor="start" x="1182" y="-595.6" font-family="Times New Roman,serif" font-size="14.00">+ isLent(book: Book): boolean</text>
<text text-anchor="start" x="1182" y="-571.6" font-family="Times New Roman,serif" font-size="14.00">+ returnBook(lendingId: String)</text>
<polygon fill="black" stroke="black" points="1177,-660.2 1177,-660.2 1564,-660.2 1564,-660.2 1177,-660.2"/>
<polygon fill="black" stroke="black" points="1177,-636.2 1177,-636.2 1564,-636.2 1564,-636.2 1177,-636.2"/>
<polygon fill="none" stroke="black" points="1176.5,-563.2 1176.5,-685.2 1563.5,-685.2 1563.5,-563.2 1176.5,-563.2"/>
</g>
<!-- LendingRepository409788394&#45;&gt;LentBook409788394 -->
<g id="edge13" class="edge">
<title>LendingRepository409788394&#45;&gt;LentBook409788394</title>
<path fill="none" stroke="black" d="M1370,-562.95C1370,-461.33 1370,-257.13 1370,-156.62"/>
<polygon fill="black" stroke="black" points="1373.5,-156.35 1370,-146.35 1366.5,-156.35 1373.5,-156.35"/>
<text text-anchor="middle" x="1403.83" y="-328.8" font-family="Times New Roman,serif" font-size="14.00">lendingMap</text>
<text text-anchor="middle" x="1403.83" y="-312" font-family="Times New Roman,serif" font-size="14.00">[0..*]</text>
</g>
<!-- LendingService409788394&#45;&gt;LendingRepository409788394 -->
<g id="edge14" class="edge">
<title>LendingService409788394&#45;&gt;LendingRepository409788394</title>
<path fill="none" stroke="black" d="M1198.71,-1246.36C1265.66,-1191.05 1341,-1128.8 1341,-1128.8 1341,-1128.8 1357.97,-834.05 1365.95,-695.54"/>
<polygon fill="black" stroke="black" points="1369.45,-695.63 1366.53,-685.45 1362.46,-695.23 1369.45,-695.63"/>
<text text-anchor="middle" x="1408.72" y="-988" font-family="Times New Roman,serif" font-size="14.00">lendingRepository</text>
<text text-anchor="middle" x="1408.72" y="-971.2" font-family="Times New Roman,serif" font-size="14.00">[0..1]</text>
</g>
<!-- LendingSystem409788394 -->
<g id="node13" class="node">
<title>LendingSystem409788394</title>
<polygon fill="#ffffff" stroke="transparent" points="1332,-1128.8 862,-1128.8 862,-838.8 1332,-838.8 1332,-1128.8"/>
<text text-anchor="start" x="867" y="-1111.2" font-family="Times New Roman,serif" font-size="14.00">(C)LendingSystem</text>
<text text-anchor="start" x="867" y="-1087.2" font-family="Times New Roman,serif" font-size="14.00">&#45; &#160;&#160;bookRepository: BookRepository [0..1]</text>
<text text-anchor="start" x="867" y="-1063.2" font-family="Times New Roman,serif" font-size="14.00">&#45; &#160;&#160;lendingRepository: LendingRepository [0..1]</text>
<text text-anchor="start" x="867" y="-1039.2" font-family="Times New Roman,serif" font-size="14.00">&#45; &#160;&#160;logger: Logger [0..1]</text>
<text text-anchor="start" x="867" y="-1015.2" font-family="Times New Roman,serif" font-size="14.00">&#45; &#160;&#160;memberRepository: MemberRepository [0..1]</text>
<text text-anchor="start" x="867" y="-991.2" font-family="Times New Roman,serif" font-size="14.00">&#45; bookAvailabilityCheck(book: Book)</text>
<text text-anchor="start" x="867" y="-967.2" font-family="Times New Roman,serif" font-size="14.00">+ calculateLendingId(isbn: String, inss: String): String</text>
<text text-anchor="start" x="867" y="-943.2" font-family="Times New Roman,serif" font-size="14.00">+ getInssFromLendingId(lendingID: String): String</text>
<text text-anchor="start" x="866.78" y="-919.2" font-family="Times New Roman,serif" font-size="14.00">+ isReturnedOnTime(bookToReturn: LentBook, returnTime: LocalDate): boolean</text>
<text text-anchor="start" x="867" y="-895.2" font-family="Times New Roman,serif" font-size="14.00">+ lend(isbn: String, inss: String): LentBook</text>
<text text-anchor="start" x="867" y="-871.2" font-family="Times New Roman,serif" font-size="14.00">+ returnBook(lendingID: String, returnTime: LocalDate)</text>
<text text-anchor="start" x="867" y="-847.2" font-family="Times New Roman,serif" font-size="14.00">+ returnBook(lendingID: String)</text>
<polygon fill="black" stroke="black" points="862,-1103.8 862,-1103.8 1332,-1103.8 1332,-1103.8 862,-1103.8"/>
<polygon fill="black" stroke="black" points="862,-1007.8 862,-1007.8 1332,-1007.8 1332,-1007.8 862,-1007.8"/>
<polygon fill="none" stroke="black" points="862,-838.8 862,-1128.8 1332,-1128.8 1332,-838.8 862,-838.8"/>
</g>
<!-- LendingService409788394&#45;&gt;LendingSystem409788394 -->
<g id="edge15" class="edge">
<title>LendingService409788394&#45;&gt;LendingSystem409788394</title>
<path fill="none" stroke="black" d="M1097,-1246.3C1097,-1214.06 1097,-1176.18 1097,-1139.41"/>
<polygon fill="black" stroke="black" points="1100.5,-1139.07 1097,-1129.07 1093.5,-1139.07 1100.5,-1139.07"/>
<text text-anchor="middle" x="1138.61" y="-1167.8" font-family="Times New Roman,serif" font-size="14.00">lendingSystem</text>
<text text-anchor="middle" x="1138.61" y="-1151" font-family="Times New Roman,serif" font-size="14.00">[0..1]</text>
</g>
<!-- LentBookMapper409788394 -->
<g id="node16" class="node">
<title>LentBookMapper409788394</title>
<polygon fill="#ffffff" stroke="transparent" points="716,-1032.8 342,-1032.8 342,-934.8 716,-934.8 716,-1032.8"/>
<text text-anchor="start" x="347" y="-1015.2" font-family="Times New Roman,serif" font-size="14.00">(C)LentBookMapper</text>
<text text-anchor="start" x="347" y="-991.2" font-family="Times New Roman,serif" font-size="14.00">+ toDTO(lentBook: LentBook): LentBookDTO</text>
<text text-anchor="start" x="346.92" y="-967.2" font-family="Times New Roman,serif" font-size="14.00">+ toDTO(lentBookList: List&lt;LentBook&gt;): List&lt;LentBookDTO&gt;</text>
<text text-anchor="start" x="347" y="-943.2" font-family="Times New Roman,serif" font-size="14.00">+ toEntity(lentBookDTO: LentBookDTO): LentBook</text>
<polygon fill="black" stroke="black" points="342,-1007.8 342,-1007.8 716,-1007.8 716,-1007.8 342,-1007.8"/>
<polygon fill="none" stroke="black" points="342,-934.8 342,-1032.8 716,-1032.8 716,-934.8 342,-934.8"/>
</g>
<!-- LendingService409788394&#45;&gt;LentBookMapper409788394 -->
<g id="edge16" class="edge">
<title>LendingService409788394&#45;&gt;LentBookMapper409788394</title>
<path fill="none" stroke="black" d="M991.57,-1246.06C959.23,-1220.19 932,-1198.4 932,-1198.4 932,-1198.4 732,-1128.8 732,-1128.8 732,-1128.8 662.86,-1079.75 605.28,-1038.91"/>
<polygon fill="black" stroke="black" points="607.06,-1035.88 596.88,-1032.95 603.01,-1041.59 607.06,-1035.88"/>
<text text-anchor="middle" x="925.43" y="-1167.8" font-family="Times New Roman,serif" font-size="14.00">lentBookMapper</text>
<text text-anchor="middle" x="925.43" y="-1151" font-family="Times New Roman,serif" font-size="14.00">[0..1]</text>
</g>
<!-- LendingSystem409788394&#45;&gt;Book1398452287 -->
<g id="edge17" class="edge">
<title>LendingSystem409788394&#45;&gt;Book1398452287</title>
<path fill="none" stroke="black" d="M1058.76,-838.55C1048.6,-800.18 1040.38,-769.2 1040.38,-769.2 1040.38,-769.2 1004,-479.2 1004,-479.2 1004,-479.2 989.07,-451.24 971.95,-419.17"/>
<polygon fill="black" stroke="black" points="974.88,-417.21 967.08,-410.04 968.7,-420.51 974.88,-417.21"/>
<text text-anchor="middle" x="1103.81" y="-620" font-family="Times New Roman,serif" font-size="14.00">lend() &#45;&gt; newBuilder()</text>
</g>
<!-- LendingSystem409788394&#45;&gt;BookRepository1398452287 -->
<g id="edge18" class="edge">
<title>LendingSystem409788394&#45;&gt;BookRepository1398452287</title>
<path fill="none" stroke="black" d="M954.35,-838.76C943.44,-827.74 936.56,-820.8 936.56,-820.8 936.56,-820.8 917.47,-790.82 894.24,-754.34"/>
<polygon fill="black" stroke="black" points="896.91,-752.01 888.58,-745.46 891,-755.77 896.91,-752.01"/>
<text text-anchor="middle" x="980.72" y="-808.2" font-family="Times New Roman,serif" font-size="14.00">bookRepository</text>
<text text-anchor="middle" x="980.72" y="-791.4" font-family="Times New Roman,serif" font-size="14.00">[0..1]</text>
</g>
<!-- LendingSystem409788394&#45;&gt;LendingRepository409788394 -->
<g id="edge19" class="edge">
<title>LendingSystem409788394&#45;&gt;LendingRepository409788394</title>
<path fill="none" stroke="black" d="M1207.06,-838.64C1245.37,-788.45 1286.57,-734.48 1317.96,-693.36"/>
<polygon fill="black" stroke="black" points="1320.82,-695.39 1324.11,-685.32 1315.26,-691.14 1320.82,-695.39"/>
<text text-anchor="middle" x="1292.72" y="-808.2" font-family="Times New Roman,serif" font-size="14.00">lendingRepository</text>
<text text-anchor="middle" x="1292.72" y="-791.4" font-family="Times New Roman,serif" font-size="14.00">[0..1]</text>
</g>
<!-- MemberRepository1296305264 -->
<g id="node20" class="node">
<title>MemberRepository1296305264</title>
<polygon fill="#ffffff" stroke="transparent" points="1930,-769.2 1582,-769.2 1582,-479.2 1930,-479.2 1930,-769.2"/>
<text text-anchor="start" x="1587" y="-751.6" font-family="Times New Roman,serif" font-size="14.00">(C)MemberRepository</text>
<text text-anchor="start" x="1587" y="-727.6" font-family="Times New Roman,serif" font-size="14.00">&#45; &#160;&#160;logger: Logger [0..1]</text>
<text text-anchor="start" x="1587" y="-703.6" font-family="Times New Roman,serif" font-size="14.00">&#45; &#160;&#160;memberMap: Map&lt;String, Member&gt; [0..*]</text>
<text text-anchor="start" x="1586.72" y="-679.6" font-family="Times New Roman,serif" font-size="14.00">+ createAndInitializeMemberMap(): Map&lt;String, Member&gt;</text>
<text text-anchor="start" x="1587" y="-655.6" font-family="Times New Roman,serif" font-size="14.00">&#45; doesMemberExist(inss: String)</text>
<text text-anchor="start" x="1587" y="-631.6" font-family="Times New Roman,serif" font-size="14.00">+ getMemberByInss(inss: String): Member</text>
<text text-anchor="start" x="1587" y="-607.6" font-family="Times New Roman,serif" font-size="14.00">&#45; isNotEmpty(inss: String)</text>
<text text-anchor="start" x="1587" y="-583.6" font-family="Times New Roman,serif" font-size="14.00">&#45; isNotNull(member: Member)</text>
<text text-anchor="start" x="1587" y="-559.6" font-family="Times New Roman,serif" font-size="14.00">&#45; isNotNull(inss: String)</text>
<text text-anchor="start" x="1587" y="-535.6" font-family="Times New Roman,serif" font-size="14.00">+ register(member: Member)</text>
<text text-anchor="start" x="1587" y="-511.6" font-family="Times New Roman,serif" font-size="14.00">&#45; validateEmail(member: Member)</text>
<text text-anchor="start" x="1587" y="-487.6" font-family="Times New Roman,serif" font-size="14.00">&#45; validateInss(member: Member)</text>
<polygon fill="black" stroke="black" points="1582,-744.2 1582,-744.2 1930,-744.2 1930,-744.2 1582,-744.2"/>
<polygon fill="black" stroke="black" points="1582,-696.2 1582,-696.2 1930,-696.2 1930,-696.2 1582,-696.2"/>
<polygon fill="none" stroke="black" points="1582,-479.2 1582,-769.2 1930,-769.2 1930,-479.2 1582,-479.2"/>
</g>
<!-- LendingSystem409788394&#45;&gt;MemberRepository1296305264 -->
<g id="edge20" class="edge">
<title>LendingSystem409788394&#45;&gt;MemberRepository1296305264</title>
<path fill="none" stroke="black" d="M1332.11,-847.38C1341.49,-841.97 1347,-838.8 1347,-838.8 1347,-838.8 1573,-769.2 1573,-769.2 1573,-769.2 1573.32,-768.95 1573.92,-768.48"/>
<polygon fill="black" stroke="black" points="1576.13,-771.19 1581.83,-762.25 1571.8,-765.69 1576.13,-771.19"/>
<text text-anchor="middle" x="1565.65" y="-808.2" font-family="Times New Roman,serif" font-size="14.00">memberRepository</text>
<text text-anchor="middle" x="1565.65" y="-791.4" font-family="Times New Roman,serif" font-size="14.00">[0..1]</text>
</g>
<!-- LentBookDTO409788394 -->
<g id="node15" class="node">
<title>LentBookDTO409788394</title>
<polygon fill="#ffffff" stroke="transparent" points="426,-733.2 234,-733.2 234,-515.2 426,-515.2 426,-733.2"/>
<text text-anchor="start" x="239" y="-715.6" font-family="Times New Roman,serif" font-size="14.00">(C)LentBookDTO</text>
<text text-anchor="start" x="238.82" y="-691.6" font-family="Times New Roman,serif" font-size="14.00">&#45; &#160;&#160;authorFirstname: String [0..1]</text>
<text text-anchor="start" x="239" y="-667.6" font-family="Times New Roman,serif" font-size="14.00">&#45; &#160;&#160;authorLastname: String [0..1]</text>
<text text-anchor="start" x="239" y="-643.6" font-family="Times New Roman,serif" font-size="14.00">&#45; &#160;&#160;dueDate: LocalDate [0..1]</text>
<text text-anchor="start" x="239" y="-619.6" font-family="Times New Roman,serif" font-size="14.00">&#45; &#160;&#160;isbn: String [0..1]</text>
<text text-anchor="start" x="239" y="-595.6" font-family="Times New Roman,serif" font-size="14.00">&#45; &#160;&#160;lendingID: String [0..1]</text>
<text text-anchor="start" x="239" y="-571.6" font-family="Times New Roman,serif" font-size="14.00">&#45; &#160;&#160;summary: String [0..1]</text>
<text text-anchor="start" x="239" y="-547.6" font-family="Times New Roman,serif" font-size="14.00">&#45; &#160;&#160;title: String [0..1]</text>
<text text-anchor="start" x="239" y="-523.6" font-family="Times New Roman,serif" font-size="14.00">+ retrieveAuthor(): Author</text>
<polygon fill="black" stroke="black" points="234,-708.2 234,-708.2 426,-708.2 426,-708.2 234,-708.2"/>
<polygon fill="black" stroke="black" points="234,-540.2 234,-540.2 426,-540.2 426,-540.2 234,-540.2"/>
<polygon fill="none" stroke="black" points="234,-515.2 234,-733.2 426,-733.2 426,-515.2 234,-515.2"/>
</g>
<!-- LentBookMapper409788394&#45;&gt;Book1398452287 -->
<g id="edge21" class="edge">
<title>LentBookMapper409788394&#45;&gt;Book1398452287</title>
<path fill="none" stroke="black" d="M516,-934.6C499,-871.6 471.37,-769.2 471.37,-769.2 471.37,-769.2 471.37,-479.2 471.37,-479.2 471.37,-479.2 792,-409.6 792,-409.6 792,-409.6 792.22,-409.46 792.64,-409.19"/>
<polygon fill="black" stroke="black" points="794.85,-411.93 801.35,-403.56 791.05,-406.05 794.85,-411.93"/>
<text text-anchor="middle" x="545.31" y="-620" font-family="Times New Roman,serif" font-size="14.00">toEntity() &#45;&gt; newBuilder()</text>
</g>
<!-- LentBookMapper409788394&#45;&gt;LentBookDTO409788394 -->
<g id="edge22" class="edge">
<title>LentBookMapper409788394&#45;&gt;LentBookDTO409788394</title>
<path fill="none" stroke="black" d="M463.97,-934.63C399.5,-886.88 310.28,-820.8 310.28,-820.8 310.28,-820.8 310.28,-787.2 310.28,-787.2 310.28,-787.2 312.58,-768.32 315.61,-743.45"/>
<polygon fill="black" stroke="black" points="319.11,-743.61 316.85,-733.26 312.17,-742.76 319.11,-743.61"/>
<text text-anchor="middle" x="392.86" y="-799.8" font-family="Times New Roman,serif" font-size="14.00">toEntity() &#45;&gt; retrieveAuthor()</text>
</g>
<!-- Member1296305264&#45;&gt;Address1296305264 -->
<g id="edge23" class="edge">
<title>Member1296305264&#45;&gt;Address1296305264</title>
<path fill="none" stroke="black" d="M1652.83,-251.6C1663.64,-228.6 1675.67,-202.99 1686.76,-179.38"/>
<polygon fill="black" stroke="black" points="1690.04,-180.63 1691.13,-170.09 1683.71,-177.65 1690.04,-180.63"/>
<text text-anchor="middle" x="1701.99" y="-209" font-family="Times New Roman,serif" font-size="14.00">address</text>
<text text-anchor="middle" x="1701.99" y="-192.2" font-family="Times New Roman,serif" font-size="14.00">[0..1]</text>
</g>
<!-- Member1296305264&#45;&gt;LentBook409788394 -->
<g id="edge24" class="edge">
<title>Member1296305264&#45;&gt;LentBook409788394</title>
<path fill="none" stroke="black" d="M1539.53,-251.6C1504.35,-219.72 1463.62,-182.83 1430.91,-153.18"/>
<polygon fill="black" stroke="black" points="1432.96,-150.32 1423.2,-146.2 1428.26,-155.51 1432.96,-150.32"/>
<text text-anchor="middle" x="1537.56" y="-209" font-family="Times New Roman,serif" font-size="14.00">lentBookList</text>
<text text-anchor="middle" x="1537.56" y="-192.2" font-family="Times New Roman,serif" font-size="14.00">[0..*]</text>
</g>
<!-- MemberBuilder157299192 -->
<g id="node19" class="node">
<title>MemberBuilder157299192</title>
<polygon fill="#ffffff" stroke="transparent" points="1908,-397.6 1754,-397.6 1754,-251.6 1908,-251.6 1908,-397.6"/>
<text text-anchor="start" x="1759" y="-380" font-family="Times New Roman,serif" font-size="14.00">(C)MemberBuilder</text>
<text text-anchor="start" x="1758.89" y="-356" font-family="Times New Roman,serif" font-size="14.00">&#45; &#160;&#160;address: Address [0..1]</text>
<text text-anchor="start" x="1759" y="-332" font-family="Times New Roman,serif" font-size="14.00">&#45; &#160;&#160;email: String [0..1]</text>
<text text-anchor="start" x="1759" y="-308" font-family="Times New Roman,serif" font-size="14.00">&#45; &#160;&#160;inss: String [0..1]</text>
<text text-anchor="start" x="1759" y="-284" font-family="Times New Roman,serif" font-size="14.00">&#45; &#160;&#160;name: Name [0..1]</text>
<text text-anchor="start" x="1759" y="-260" font-family="Times New Roman,serif" font-size="14.00">+ build(): Member</text>
<polygon fill="black" stroke="black" points="1754,-372.6 1754,-372.6 1908,-372.6 1908,-372.6 1754,-372.6"/>
<polygon fill="black" stroke="black" points="1754,-276.6 1754,-276.6 1908,-276.6 1908,-276.6 1754,-276.6"/>
<polygon fill="none" stroke="black" points="1754,-251.6 1754,-397.6 1908,-397.6 1908,-251.6 1754,-251.6"/>
</g>
<!-- MemberBuilder157299192&#45;&gt;Address1296305264 -->
<g id="edge25" class="edge">
<title>MemberBuilder157299192&#45;&gt;Address1296305264</title>
<path fill="none" stroke="black" d="M1797.17,-251.6C1786.36,-228.6 1774.33,-202.99 1763.24,-179.38"/>
<polygon fill="black" stroke="black" points="1766.29,-177.65 1758.87,-170.09 1759.96,-180.63 1766.29,-177.65"/>
<text text-anchor="middle" x="1801.99" y="-209" font-family="Times New Roman,serif" font-size="14.00">address</text>
<text text-anchor="middle" x="1801.99" y="-192.2" font-family="Times New Roman,serif" font-size="14.00">[0..1]</text>
</g>
<!-- MemberBuilder157299192&#45;&gt;Name1718269883 -->
<g id="edge26" class="edge">
<title>MemberBuilder157299192&#45;&gt;Name1718269883</title>
<path fill="none" stroke="black" d="M1883.34,-251.6C1906.22,-220.13 1932.66,-183.76 1954.06,-154.31"/>
<polygon fill="black" stroke="black" points="1956.91,-156.35 1959.96,-146.2 1951.25,-152.23 1956.91,-156.35"/>
<text text-anchor="middle" x="1942.16" y="-209" font-family="Times New Roman,serif" font-size="14.00">name</text>
<text text-anchor="middle" x="1942.16" y="-192.2" font-family="Times New Roman,serif" font-size="14.00">[0..1]</text>
</g>
<!-- MemberRepository1296305264&#45;&gt;Member1296305264 -->
<g id="edge27" class="edge">
<title>MemberRepository1296305264&#45;&gt;Member1296305264</title>
<path fill="none" stroke="black" d="M1665.72,-479.16C1658.82,-468.14 1654.47,-461.2 1654.47,-461.2 1654.47,-461.2 1647.91,-436.14 1640.44,-407.56"/>
<polygon fill="black" stroke="black" points="1643.79,-406.56 1637.88,-397.77 1637.02,-408.33 1643.79,-406.56"/>
<text text-anchor="middle" x="1689.77" y="-448.6" font-family="Times New Roman,serif" font-size="14.00">memberMap</text>
<text text-anchor="middle" x="1689.77" y="-431.8" font-family="Times New Roman,serif" font-size="14.00">[0..*]</text>
</g>
<!-- MemberRepository1296305264&#45;&gt;MemberBuilder157299192 -->
<g id="edge28" class="edge">
<title>MemberRepository1296305264&#45;&gt;MemberBuilder157299192</title>
<path fill="none" stroke="black" d="M1766.07,-478.99C1768.12,-449.67 1769.66,-427.6 1769.66,-427.6 1769.66,-427.6 1774.94,-418.83 1782.39,-406.44"/>
<polygon fill="black" stroke="black" points="1785.42,-408.2 1787.57,-397.82 1779.42,-404.59 1785.42,-408.2"/>
<text text-anchor="middle" x="1892.67" y="-440.2" font-family="Times New Roman,serif" font-size="14.00">createAndInitializeMemberMap() &#45;&gt; build()</text>
</g>
</g>
</svg>
