<?xml version="1.0" encoding="UTF-8" standalone="no"?>
<!DOCTYPE svg PUBLIC "-//W3C//DTD SVG 1.1//EN"
 "http://www.w3.org/Graphics/SVG/1.1/DTD/svg11.dtd">
<!-- Generated by graphviz version 2.44.1 (20200629.0846)
 -->
<!-- Title: g Pages: 1 -->
<svg width="1448pt" height="1306pt"
 viewBox="0.00 0.00 1448.00 1306.00" xmlns="http://www.w3.org/2000/svg" xmlns:xlink="http://www.w3.org/1999/xlink">
<g id="graph0" class="graph" transform="scale(1 1) rotate(0) translate(4 1302)">
<title>g</title>
<polygon fill="white" stroke="transparent" points="-4,4 -4,-1302 1444,-1302 1444,4 -4,4"/>
<g id="clust1" class="cluster">
<title>cluster_1196949968</title>
<polygon fill="#ececec" stroke="black" points="8,-8 8,-1290 1432,-1290 1432,-8 8,-8"/>
<text text-anchor="middle" x="56.8" y="-1273.4" font-family="Times New Roman,serif" font-size="14.00">carbonaracode</text>
</g>
<g id="clust2" class="cluster">
<title>cluster_1776094584</title>
<polygon fill="#d8d8d8" stroke="black" points="16,-16 16,-1257.2 1424,-1257.2 1424,-16 16,-16"/>
<text text-anchor="middle" x="79.98" y="-1240.6" font-family="Times New Roman,serif" font-size="14.00">digibookycarbonara</text>
</g>
<!-- AbstractMember1296305264 -->
<g id="node1" class="node">
<title>AbstractMember1296305264</title>
<polygon fill="#ffffff" stroke="transparent" points="1415.5,-697.2 1238.5,-697.2 1238.5,-551.2 1415.5,-551.2 1415.5,-697.2"/>
<text text-anchor="start" x="1244" y="-679.6" font-family="Times New Roman,serif" font-size="14.00">(C)AbstractMember</text>
<text text-anchor="start" x="1244" y="-655.6" font-family="Times New Roman,serif" font-size="14.00">&#45; &#160;&#160;email: String [0..1]</text>
<text text-anchor="start" x="1244" y="-631.6" font-family="Times New Roman,serif" font-size="14.00">&#45; &#160;&#160;inss: String [0..1]</text>
<text text-anchor="start" x="1244" y="-607.6" font-family="Times New Roman,serif" font-size="14.00">&#45; &#160;&#160;name: Name [0..1]</text>
<text text-anchor="start" x="1243.52" y="-583.6" font-family="Times New Roman,serif" font-size="14.00">&#45; validateEmail(email: String)</text>
<text text-anchor="start" x="1244" y="-559.6" font-family="Times New Roman,serif" font-size="14.00">&#45; validateInss(inss: String)</text>
<polygon fill="black" stroke="black" points="1239,-672.2 1239,-672.2 1416,-672.2 1416,-672.2 1239,-672.2"/>
<polygon fill="black" stroke="black" points="1239,-600.2 1239,-600.2 1416,-600.2 1416,-600.2 1239,-600.2"/>
<polygon fill="none" stroke="black" points="1238.5,-551.2 1238.5,-697.2 1415.5,-697.2 1415.5,-551.2 1238.5,-551.2"/>
</g>
<!-- Librarian2052539930 -->
<g id="node8" class="node">
<title>Librarian2052539930</title>
<polygon fill="#ffffff" stroke="transparent" points="1416,-342.6 1336,-342.6 1336,-306.6 1416,-306.6 1416,-342.6"/>
<text text-anchor="start" x="1340.63" y="-320" font-family="Times New Roman,serif" font-size="14.00">(C)Librarian</text>
<polygon fill="none" stroke="black" points="1336,-311.6 1336,-337.6 1416,-337.6 1416,-311.6 1336,-311.6"/>
</g>
<!-- AbstractMember1296305264&#45;&gt;Librarian2052539930 -->
<g id="edge1" class="edge">
<title>AbstractMember1296305264&#45;&gt;Librarian2052539930</title>
<path fill="none" stroke="black" d="M1340.49,-541.24C1351.76,-472.8 1366.95,-380.54 1373.17,-342.78"/>
<polygon fill="none" stroke="black" points="1337.03,-540.72 1338.86,-551.16 1343.94,-541.86 1337.03,-540.72"/>
</g>
<!-- Member1296305264 -->
<g id="node9" class="node">
<title>Member1296305264</title>
<polygon fill="#ffffff" stroke="transparent" points="992,-397.6 758,-397.6 758,-251.6 992,-251.6 992,-397.6"/>
<text text-anchor="start" x="763" y="-380" font-family="Times New Roman,serif" font-size="14.00">(C)Member</text>
<text text-anchor="start" x="763" y="-356" font-family="Times New Roman,serif" font-size="14.00">&#45; &#160;&#160;address: Address [0..1]</text>
<text text-anchor="start" x="763" y="-332" font-family="Times New Roman,serif" font-size="14.00">&#45; &#160;&#160;lentBookList: List&lt;LentBook&gt; [0..*]</text>
<text text-anchor="start" x="763" y="-308" font-family="Times New Roman,serif" font-size="14.00">+ addLentBook(lentBook: LentBook)</text>
<text text-anchor="start" x="763" y="-284" font-family="Times New Roman,serif" font-size="14.00">+ newBuilder(): MemberBuilder</text>
<text text-anchor="start" x="762.57" y="-260" font-family="Times New Roman,serif" font-size="14.00">+ returnLentBook(lentBook: LentBook)</text>
<polygon fill="black" stroke="black" points="758,-372.6 758,-372.6 992,-372.6 992,-372.6 758,-372.6"/>
<polygon fill="black" stroke="black" points="758,-324.6 758,-324.6 992,-324.6 992,-324.6 758,-324.6"/>
<polygon fill="none" stroke="black" points="758,-251.6 758,-397.6 992,-397.6 992,-251.6 758,-251.6"/>
</g>
<!-- AbstractMember1296305264&#45;&gt;Member1296305264 -->
<g id="edge2" class="edge">
<title>AbstractMember1296305264&#45;&gt;Member1296305264</title>
<path fill="none" stroke="black" d="M1272.01,-542.39C1249.66,-509.56 1229,-479.2 1229,-479.2 1229,-479.2 1129,-461.2 1129,-461.2 1129,-461.2 1103,-427.6 1103,-427.6 1103,-427.6 1006,-409.6 1006,-409.6 1006,-409.6 998.68,-404.91 987.51,-397.74"/>
<polygon fill="none" stroke="black" points="1269.19,-544.48 1277.71,-550.78 1274.98,-540.54 1269.19,-544.48"/>
</g>
<!-- Name1718269883 -->
<g id="node15" class="node">
<title>Name1718269883</title>
<polygon fill="#ffffff" stroke="transparent" points="995.5,-146 790.5,-146 790.5,-48 995.5,-48 995.5,-146"/>
<text text-anchor="start" x="796" y="-128.4" font-family="Times New Roman,serif" font-size="14.00">(C)Name</text>
<text text-anchor="start" x="796" y="-104.4" font-family="Times New Roman,serif" font-size="14.00">&#45; &#160;&#160;firstName: String [0..1]</text>
<text text-anchor="start" x="796" y="-80.4" font-family="Times New Roman,serif" font-size="14.00">&#45; &#160;&#160;lastName: String [0..1]</text>
<text text-anchor="start" x="795.53" y="-56.4" font-family="Times New Roman,serif" font-size="14.00">&#45; validateNameField(name: String)</text>
<polygon fill="black" stroke="black" points="791,-121 791,-121 996,-121 996,-121 791,-121"/>
<polygon fill="black" stroke="black" points="791,-73 791,-73 996,-73 996,-73 791,-73"/>
<polygon fill="none" stroke="black" points="790.5,-48 790.5,-146 995.5,-146 995.5,-48 790.5,-48"/>
</g>
<!-- AbstractMember1296305264&#45;&gt;Name1718269883 -->
<g id="edge3" class="edge">
<title>AbstractMember1296305264&#45;&gt;Name1718269883</title>
<path fill="none" stroke="black" d="M1277.71,-550.78C1253.31,-514.92 1229,-479.2 1229,-479.2 1229,-479.2 1121,-427.6 1121,-427.6 1121,-427.6 1037.68,-409.6 1037.68,-409.6 1037.68,-409.6 1023,-188 1023,-188 1023,-188 998.54,-171.07 970.84,-151.89"/>
<polygon fill="black" stroke="black" points="972.78,-148.98 962.57,-146.16 968.8,-154.73 972.78,-148.98"/>
<text text-anchor="middle" x="1052.16" y="-328.8" font-family="Times New Roman,serif" font-size="14.00">name</text>
<text text-anchor="middle" x="1052.16" y="-312" font-family="Times New Roman,serif" font-size="14.00">[0..1]</text>
</g>
<!-- Address1296305264 -->
<g id="node2" class="node">
<title>Address1296305264</title>
<polygon fill="#ffffff" stroke="transparent" points="772,-170 532,-170 532,-24 772,-24 772,-170"/>
<text text-anchor="start" x="537" y="-152.4" font-family="Times New Roman,serif" font-size="14.00">(C)Address</text>
<text text-anchor="start" x="537" y="-128.4" font-family="Times New Roman,serif" font-size="14.00">&#45; &#160;&#160;city: String [0..1]</text>
<text text-anchor="start" x="537" y="-104.4" font-family="Times New Roman,serif" font-size="14.00">&#45; &#160;&#160;postalCode: int [1]</text>
<text text-anchor="start" x="537" y="-80.4" font-family="Times New Roman,serif" font-size="14.00">&#45; &#160;&#160;streetName: String [0..1]</text>
<text text-anchor="start" x="537" y="-56.4" font-family="Times New Roman,serif" font-size="14.00">&#45; &#160;&#160;streetNumber: int [1]</text>
<text text-anchor="start" x="536.52" y="-32.4" font-family="Times New Roman,serif" font-size="14.00">&#45; stringIsNotEmptyOrNull(string: String)</text>
<polygon fill="black" stroke="black" points="532,-145 532,-145 772,-145 772,-145 532,-145"/>
<polygon fill="black" stroke="black" points="532,-49 532,-49 772,-49 772,-49 532,-49"/>
<polygon fill="none" stroke="black" points="532,-24 532,-170 772,-170 772,-24 532,-24"/>
</g>
<!-- Author1398452287 -->
<g id="node3" class="node">
<title>Author1398452287</title>
<polygon fill="#ffffff" stroke="transparent" points="1416,-158 1224,-158 1224,-36 1416,-36 1416,-158"/>
<text text-anchor="start" x="1229" y="-140.4" font-family="Times New Roman,serif" font-size="14.00">(C)Author</text>
<text text-anchor="start" x="1228.82" y="-116.4" font-family="Times New Roman,serif" font-size="14.00">&#45; &#160;&#160;authorFirstname: String [0..1]</text>
<text text-anchor="start" x="1229" y="-92.4" font-family="Times New Roman,serif" font-size="14.00">&#45; &#160;&#160;authorLastname: String [0..1]</text>
<text text-anchor="start" x="1229" y="-68.4" font-family="Times New Roman,serif" font-size="14.00">+ authorFirstname(): String</text>
<text text-anchor="start" x="1229" y="-44.4" font-family="Times New Roman,serif" font-size="14.00">+ authorLastname(): String</text>
<polygon fill="black" stroke="black" points="1224,-133 1224,-133 1416,-133 1416,-133 1224,-133"/>
<polygon fill="black" stroke="black" points="1224,-85 1224,-85 1416,-85 1416,-85 1224,-85"/>
<polygon fill="none" stroke="black" points="1224,-36 1224,-158 1416,-158 1416,-36 1224,-36"/>
</g>
<!-- Book1398452287 -->
<g id="node4" class="node">
<title>Book1398452287</title>
<polygon fill="#ffffff" stroke="transparent" points="1317.5,-409.6 1076.5,-409.6 1076.5,-239.6 1317.5,-239.6 1317.5,-409.6"/>
<text text-anchor="start" x="1082" y="-392" font-family="Times New Roman,serif" font-size="14.00">(C)Book</text>
<text text-anchor="start" x="1082" y="-368" font-family="Times New Roman,serif" font-size="14.00">&#45; &#160;&#160;author: Author [0..1]</text>
<text text-anchor="start" x="1082" y="-344" font-family="Times New Roman,serif" font-size="14.00">&#45; &#160;&#160;isbn: String [0..1]</text>
<text text-anchor="start" x="1082" y="-320" font-family="Times New Roman,serif" font-size="14.00">&#45; &#160;&#160;summary: String [0..1]</text>
<text text-anchor="start" x="1082" y="-296" font-family="Times New Roman,serif" font-size="14.00">&#45; &#160;&#160;title: String [0..1]</text>
<text text-anchor="start" x="1082" y="-272" font-family="Times New Roman,serif" font-size="14.00">+ newBuilder(): BookBuilder</text>
<text text-anchor="start" x="1081.76" y="-248" font-family="Times New Roman,serif" font-size="14.00">+ newBuilder(book: Book): BookBuilder</text>
<polygon fill="black" stroke="black" points="1077,-384.6 1077,-384.6 1318,-384.6 1318,-384.6 1077,-384.6"/>
<polygon fill="black" stroke="black" points="1077,-288.6 1077,-288.6 1318,-288.6 1318,-288.6 1077,-288.6"/>
<polygon fill="none" stroke="black" points="1076.5,-239.6 1076.5,-409.6 1317.5,-409.6 1317.5,-239.6 1076.5,-239.6"/>
</g>
<!-- Book1398452287&#45;&gt;Author1398452287 -->
<g id="edge4" class="edge">
<title>Book1398452287&#45;&gt;Author1398452287</title>
<path fill="none" stroke="black" d="M1242.8,-239.59C1255.83,-215.71 1269.86,-189.97 1282.34,-167.08"/>
<polygon fill="black" stroke="black" points="1285.51,-168.58 1287.22,-158.12 1279.36,-165.23 1285.51,-168.58"/>
<text text-anchor="middle" x="1286.88" y="-209" font-family="Times New Roman,serif" font-size="14.00">author</text>
<text text-anchor="middle" x="1286.88" y="-192.2" font-family="Times New Roman,serif" font-size="14.00">[0..1]</text>
</g>
<!-- LentBook409788394 -->
<g id="node7" class="node">
<title>LentBook409788394</title>
<polygon fill="#ffffff" stroke="transparent" points="1206,-146 1014,-146 1014,-48 1206,-48 1206,-146"/>
<text text-anchor="start" x="1019" y="-128.4" font-family="Times New Roman,serif" font-size="14.00">(C)LentBook</text>
<text text-anchor="start" x="1019" y="-104.4" font-family="Times New Roman,serif" font-size="14.00">&#45; &#160;&#160;dueDate: LocalDate [0..1]</text>
<text text-anchor="start" x="1019" y="-80.4" font-family="Times New Roman,serif" font-size="14.00">&#45; &#160;&#160;lendingID: String [0..1]</text>
<text text-anchor="start" x="1018.67" y="-56.4" font-family="Times New Roman,serif" font-size="14.00">&#45; calculateDueDate(): LocalDate</text>
<polygon fill="black" stroke="black" points="1014,-121 1014,-121 1206,-121 1206,-121 1014,-121"/>
<polygon fill="black" stroke="black" points="1014,-73 1014,-73 1206,-73 1206,-73 1014,-73"/>
<polygon fill="none" stroke="black" points="1014,-48 1014,-146 1206,-146 1206,-48 1014,-48"/>
</g>
<!-- Book1398452287&#45;&gt;LentBook409788394 -->
<g id="edge5" class="edge">
<title>Book1398452287&#45;&gt;LentBook409788394</title>
<path fill="none" stroke="black" d="M1161.01,-230.26C1149.84,-201.3 1137.99,-170.57 1128.52,-146.03"/>
<polygon fill="none" stroke="black" points="1157.74,-231.52 1164.6,-239.59 1164.27,-229.01 1157.74,-231.52"/>
</g>
<!-- KeycloakService1165648183 -->
<g id="node5" class="node">
<title>KeycloakService1165648183</title>
<polygon fill="#ffffff" stroke="transparent" points="471.5,-757.2 24.5,-757.2 24.5,-491.2 471.5,-491.2 471.5,-757.2"/>
<text text-anchor="start" x="30" y="-739.6" font-family="Times New Roman,serif" font-size="14.00">(C)KeycloakService</text>
<text text-anchor="start" x="30" y="-715.6" font-family="Times New Roman,serif" font-size="14.00">&#45; &#160;&#160;clientID: String [0..1]</text>
<text text-anchor="start" x="30" y="-691.6" font-family="Times New Roman,serif" font-size="14.00">&#45; &#160;&#160;realmResource: RealmResource [0..1]</text>
<text text-anchor="start" x="30" y="-667.6" font-family="Times New Roman,serif" font-size="14.00">&#45; addRole(user: UserResource, roleName: String)</text>
<text text-anchor="start" x="30" y="-643.6" font-family="Times New Roman,serif" font-size="14.00">+ addUser(keycloakUserDTO: KeycloakUserDTO)</text>
<text text-anchor="start" x="29.83" y="-619.6" font-family="Times New Roman,serif" font-size="14.00">&#45; createCredentialRepresentation(password: String): CredentialRepresentation</text>
<text text-anchor="start" x="30" y="-595.6" font-family="Times New Roman,serif" font-size="14.00">&#45; createUser(keycloakUserDTO: KeycloakUserDTO): String</text>
<text text-anchor="start" x="30" y="-571.6" font-family="Times New Roman,serif" font-size="14.00">&#45; createUser(username: String): Response</text>
<text text-anchor="start" x="30" y="-547.6" font-family="Times New Roman,serif" font-size="14.00">&#45; createUserRepresentation(username: String): UserRepresentation</text>
<text text-anchor="start" x="30" y="-523.6" font-family="Times New Roman,serif" font-size="14.00">&#45; getRole(roleToAdd: String): RoleRepresentation</text>
<text text-anchor="start" x="30" y="-499.6" font-family="Times New Roman,serif" font-size="14.00">&#45; getUser(userId: String): UserResource</text>
<polygon fill="black" stroke="black" points="25,-732.2 25,-732.2 472,-732.2 472,-732.2 25,-732.2"/>
<polygon fill="black" stroke="black" points="25,-684.2 25,-684.2 472,-684.2 472,-684.2 25,-684.2"/>
<polygon fill="none" stroke="black" points="24.5,-491.2 24.5,-757.2 471.5,-757.2 471.5,-491.2 24.5,-491.2"/>
</g>
<!-- KeycloakUserDTO1165648183 -->
<g id="node6" class="node">
<title>KeycloakUserDTO1165648183</title>
<polygon fill="#ffffff" stroke="transparent" points="1226.5,-1224.4 1069.5,-1224.4 1069.5,-1054.4 1226.5,-1054.4 1226.5,-1224.4"/>
<text text-anchor="start" x="1075" y="-1206.8" font-family="Times New Roman,serif" font-size="14.00">(C)KeycloakUserDTO</text>
<text text-anchor="start" x="1075" y="-1182.8" font-family="Times New Roman,serif" font-size="14.00">&#45; &#160;&#160;password: String [0..1]</text>
<text text-anchor="start" x="1075" y="-1158.8" font-family="Times New Roman,serif" font-size="14.00">&#45; &#160;&#160;role: Role [0..1]</text>
<text text-anchor="start" x="1074.83" y="-1134.8" font-family="Times New Roman,serif" font-size="14.00">&#45; &#160;&#160;userName: String [0..1]</text>
<text text-anchor="start" x="1075" y="-1110.8" font-family="Times New Roman,serif" font-size="14.00">+ password(): String</text>
<text text-anchor="start" x="1075" y="-1086.8" font-family="Times New Roman,serif" font-size="14.00">+ role(): Role</text>
<text text-anchor="start" x="1075" y="-1062.8" font-family="Times New Roman,serif" font-size="14.00">+ userName(): String</text>
<polygon fill="black" stroke="black" points="1070,-1199.4 1070,-1199.4 1227,-1199.4 1227,-1199.4 1070,-1199.4"/>
<polygon fill="black" stroke="black" points="1070,-1127.4 1070,-1127.4 1227,-1127.4 1227,-1127.4 1070,-1127.4"/>
<polygon fill="none" stroke="black" points="1069.5,-1054.4 1069.5,-1224.4 1226.5,-1224.4 1226.5,-1054.4 1069.5,-1054.4"/>
</g>
<!-- Member1296305264&#45;&gt;Address1296305264 -->
<g id="edge6" class="edge">
<title>Member1296305264&#45;&gt;Address1296305264</title>
<path fill="none" stroke="black" d="M834.02,-251.43C815.63,-219.05 798,-188 798,-188 798,-188 789.9,-183.01 777.52,-175.37"/>
<polygon fill="black" stroke="black" points="779.15,-172.27 768.81,-170 775.48,-178.23 779.15,-172.27"/>
<text text-anchor="middle" x="836.99" y="-209" font-family="Times New Roman,serif" font-size="14.00">address</text>
<text text-anchor="middle" x="836.99" y="-192.2" font-family="Times New Roman,serif" font-size="14.00">[0..1]</text>
</g>
<!-- Member1296305264&#45;&gt;LentBook409788394 -->
<g id="edge7" class="edge">
<title>Member1296305264&#45;&gt;LentBook409788394</title>
<path fill="none" stroke="black" d="M950,-251.6C983.2,-219.72 1021.64,-182.83 1052.52,-153.18"/>
<polygon fill="black" stroke="black" points="1055,-155.65 1059.79,-146.2 1050.15,-150.6 1055,-155.65"/>
<text text-anchor="middle" x="1049.56" y="-209" font-family="Times New Roman,serif" font-size="14.00">lentBookList</text>
<text text-anchor="middle" x="1049.56" y="-192.2" font-family="Times New Roman,serif" font-size="14.00">[0..*]</text>
</g>
<!-- MemberBuilder157299192 -->
<g id="node10" class="node">
<title>MemberBuilder157299192</title>
<polygon fill="#ffffff" stroke="transparent" points="737,-397.6 583,-397.6 583,-251.6 737,-251.6 737,-397.6"/>
<text text-anchor="start" x="588" y="-380" font-family="Times New Roman,serif" font-size="14.00">(C)MemberBuilder</text>
<text text-anchor="start" x="587.89" y="-356" font-family="Times New Roman,serif" font-size="14.00">&#45; &#160;&#160;address: Address [0..1]</text>
<text text-anchor="start" x="588" y="-332" font-family="Times New Roman,serif" font-size="14.00">&#45; &#160;&#160;email: String [0..1]</text>
<text text-anchor="start" x="588" y="-308" font-family="Times New Roman,serif" font-size="14.00">&#45; &#160;&#160;inss: String [0..1]</text>
<text text-anchor="start" x="588" y="-284" font-family="Times New Roman,serif" font-size="14.00">&#45; &#160;&#160;name: Name [0..1]</text>
<text text-anchor="start" x="588" y="-260" font-family="Times New Roman,serif" font-size="14.00">+ build(): Member</text>
<polygon fill="black" stroke="black" points="583,-372.6 583,-372.6 737,-372.6 737,-372.6 583,-372.6"/>
<polygon fill="black" stroke="black" points="583,-276.6 583,-276.6 737,-276.6 737,-276.6 583,-276.6"/>
<polygon fill="none" stroke="black" points="583,-251.6 583,-397.6 737,-397.6 737,-251.6 583,-251.6"/>
</g>
<!-- MemberBuilder157299192&#45;&gt;Address1296305264 -->
<g id="edge8" class="edge">
<title>MemberBuilder157299192&#45;&gt;Address1296305264</title>
<path fill="none" stroke="black" d="M657.45,-251.6C656.64,-228.91 655.75,-203.67 654.92,-180.32"/>
<polygon fill="black" stroke="black" points="658.41,-179.96 654.56,-170.09 651.41,-180.21 658.41,-179.96"/>
<text text-anchor="middle" x="676.99" y="-209" font-family="Times New Roman,serif" font-size="14.00">address</text>
<text text-anchor="middle" x="676.99" y="-192.2" font-family="Times New Roman,serif" font-size="14.00">[0..1]</text>
</g>
<!-- MemberBuilder157299192&#45;&gt;Name1718269883 -->
<g id="edge9" class="edge">
<title>MemberBuilder157299192&#45;&gt;Name1718269883</title>
<path fill="none" stroke="black" d="M715.18,-251.43C739.94,-219.05 763.68,-188 763.68,-188 763.68,-188 788.01,-171.07 815.56,-151.89"/>
<polygon fill="black" stroke="black" points="817.59,-154.75 823.8,-146.16 813.59,-149 817.59,-154.75"/>
<text text-anchor="middle" x="778.16" y="-209" font-family="Times New Roman,serif" font-size="14.00">name</text>
<text text-anchor="middle" x="778.16" y="-192.2" font-family="Times New Roman,serif" font-size="14.00">[0..1]</text>
</g>
<!-- MemberController1296305264 -->
<g id="node11" class="node">
<title>MemberController1296305264</title>
<polygon fill="#ffffff" stroke="transparent" points="862,-1176.4 482,-1176.4 482,-1102.4 862,-1102.4 862,-1176.4"/>
<text text-anchor="start" x="487" y="-1158.8" font-family="Times New Roman,serif" font-size="14.00">(C)MemberController</text>
<text text-anchor="start" x="487" y="-1134.8" font-family="Times New Roman,serif" font-size="14.00"># &#160;&#160;memberService: MemberService [0..1]</text>
<text text-anchor="start" x="486.71" y="-1110.8" font-family="Times New Roman,serif" font-size="14.00">+ registerNewMember(memberDto: MemberDTO): MemberDTO</text>
<polygon fill="black" stroke="black" points="482,-1151.4 482,-1151.4 862,-1151.4 862,-1151.4 482,-1151.4"/>
<polygon fill="black" stroke="black" points="482,-1127.4 482,-1127.4 862,-1127.4 862,-1127.4 482,-1127.4"/>
<polygon fill="none" stroke="black" points="482,-1102.4 482,-1176.4 862,-1176.4 862,-1102.4 482,-1102.4"/>
</g>
<!-- MemberService1296305264 -->
<g id="node14" class="node">
<title>MemberService1296305264</title>
<polygon fill="#ffffff" stroke="transparent" points="820,-984.8 524,-984.8 524,-838.8 820,-838.8 820,-984.8"/>
<text text-anchor="start" x="529" y="-967.2" font-family="Times New Roman,serif" font-size="14.00">(C)MemberService</text>
<text text-anchor="start" x="529" y="-943.2" font-family="Times New Roman,serif" font-size="14.00"># &#160;&#160;keycloakService: KeycloakService [0..1]</text>
<text text-anchor="start" x="529" y="-919.2" font-family="Times New Roman,serif" font-size="14.00">&#45; &#160;&#160;logger: Logger [0..1]</text>
<text text-anchor="start" x="529" y="-895.2" font-family="Times New Roman,serif" font-size="14.00"># &#160;&#160;memberMapper: MemberMapper [0..1]</text>
<text text-anchor="start" x="529" y="-871.2" font-family="Times New Roman,serif" font-size="14.00"># &#160;&#160;memberRepository: MemberRepository [0..1]</text>
<text text-anchor="start" x="528.5" y="-847.2" font-family="Times New Roman,serif" font-size="14.00">+ registerNewMember(memberDto: MemberDTO)</text>
<polygon fill="black" stroke="black" points="524,-959.8 524,-959.8 820,-959.8 820,-959.8 524,-959.8"/>
<polygon fill="black" stroke="black" points="524,-863.8 524,-863.8 820,-863.8 820,-863.8 524,-863.8"/>
<polygon fill="none" stroke="black" points="524,-838.8 524,-984.8 820,-984.8 820,-838.8 524,-838.8"/>
</g>
<!-- MemberController1296305264&#45;&gt;MemberService1296305264 -->
<g id="edge10" class="edge">
<title>MemberController1296305264&#45;&gt;MemberService1296305264</title>
<path fill="none" stroke="black" d="M672,-1102.15C672,-1073.35 672,-1031.94 672,-995.18"/>
<polygon fill="black" stroke="black" points="675.5,-994.95 672,-984.95 668.5,-994.95 675.5,-994.95"/>
<text text-anchor="middle" x="715.92" y="-1023.8" font-family="Times New Roman,serif" font-size="14.00">memberService</text>
<text text-anchor="middle" x="715.92" y="-1007" font-family="Times New Roman,serif" font-size="14.00">[0..1]</text>
</g>
<!-- MemberMapper1296305264 -->
<g id="node12" class="node">
<title>MemberMapper1296305264</title>
<polygon fill="#ffffff" stroke="transparent" points="854,-673.2 490,-673.2 490,-575.2 854,-575.2 854,-673.2"/>
<text text-anchor="start" x="495" y="-655.6" font-family="Times New Roman,serif" font-size="14.00">(C)MemberMapper</text>
<text text-anchor="start" x="495" y="-631.6" font-family="Times New Roman,serif" font-size="14.00">&#45; &#160;&#160;logger: Logger [0..1]</text>
<text text-anchor="start" x="494.53" y="-607.6" font-family="Times New Roman,serif" font-size="14.00"># memberDtoToMember(memberDto: MemberDTO): Member</text>
<text text-anchor="start" x="495" y="-583.6" font-family="Times New Roman,serif" font-size="14.00"># memberToMemberDto(member: Member): MemberDTO</text>
<polygon fill="black" stroke="black" points="490,-648.2 490,-648.2 854,-648.2 854,-648.2 490,-648.2"/>
<polygon fill="black" stroke="black" points="490,-624.2 490,-624.2 854,-624.2 854,-624.2 490,-624.2"/>
<polygon fill="none" stroke="black" points="490,-575.2 490,-673.2 854,-673.2 854,-575.2 490,-575.2"/>
</g>
<!-- MemberMapper1296305264&#45;&gt;Member1296305264 -->
<g id="edge11" class="edge">
<title>MemberMapper1296305264&#45;&gt;Member1296305264</title>
<path fill="none" stroke="black" d="M627,-575.03C582.38,-527.28 520.64,-461.2 520.64,-461.2 520.64,-461.2 520.64,-427.6 520.64,-427.6 520.64,-427.6 746,-409.6 746,-409.6 746,-409.6 749.56,-407.28 755.5,-403.41"/>
<polygon fill="black" stroke="black" points="757.74,-406.13 764.21,-397.74 753.92,-400.27 757.74,-406.13"/>
<text text-anchor="middle" x="636.68" y="-440.2" font-family="Times New Roman,serif" font-size="14.00">memberDtoToMember() &#45;&gt; newBuilder()</text>
</g>
<!-- MemberMapper1296305264&#45;&gt;MemberBuilder157299192 -->
<g id="edge12" class="edge">
<title>MemberMapper1296305264&#45;&gt;MemberBuilder157299192</title>
<path fill="none" stroke="black" d="M608.13,-575.05C552.61,-533.19 481,-479.2 481,-479.2 481,-479.2 301.18,-461.2 301.18,-461.2 301.18,-461.2 301.18,-427.6 301.18,-427.6 301.18,-427.6 466.61,-380.57 572.82,-350.38"/>
<polygon fill="black" stroke="black" points="573.92,-353.71 582.58,-347.61 572.01,-346.97 573.92,-353.71"/>
<text text-anchor="middle" x="399.41" y="-440.2" font-family="Times New Roman,serif" font-size="14.00">memberDtoToMember() &#45;&gt; build()</text>
</g>
<!-- MemberRepository1296305264 -->
<g id="node13" class="node">
<title>MemberRepository1296305264</title>
<polygon fill="#ffffff" stroke="transparent" points="1220,-769.2 872,-769.2 872,-479.2 1220,-479.2 1220,-769.2"/>
<text text-anchor="start" x="877" y="-751.6" font-family="Times New Roman,serif" font-size="14.00">(C)MemberRepository</text>
<text text-anchor="start" x="877" y="-727.6" font-family="Times New Roman,serif" font-size="14.00">&#45; &#160;&#160;logger: Logger [0..1]</text>
<text text-anchor="start" x="877" y="-703.6" font-family="Times New Roman,serif" font-size="14.00">&#45; &#160;&#160;memberMap: Map&lt;String, Member&gt; [0..*]</text>
<text text-anchor="start" x="876.72" y="-679.6" font-family="Times New Roman,serif" font-size="14.00">+ createAndInitializeMemberMap(): Map&lt;String, Member&gt;</text>
<text text-anchor="start" x="877" y="-655.6" font-family="Times New Roman,serif" font-size="14.00">&#45; doesMemberExist(inss: String)</text>
<text text-anchor="start" x="877" y="-631.6" font-family="Times New Roman,serif" font-size="14.00">+ getMemberByInss(inss: String): Member</text>
<text text-anchor="start" x="877" y="-607.6" font-family="Times New Roman,serif" font-size="14.00">&#45; isNotEmpty(inss: String)</text>
<text text-anchor="start" x="877" y="-583.6" font-family="Times New Roman,serif" font-size="14.00">&#45; isNotNull(member: Member)</text>
<text text-anchor="start" x="877" y="-559.6" font-family="Times New Roman,serif" font-size="14.00">&#45; isNotNull(inss: String)</text>
<text text-anchor="start" x="877" y="-535.6" font-family="Times New Roman,serif" font-size="14.00">+ register(member: Member)</text>
<text text-anchor="start" x="877" y="-511.6" font-family="Times New Roman,serif" font-size="14.00">&#45; validateEmail(member: Member)</text>
<text text-anchor="start" x="877" y="-487.6" font-family="Times New Roman,serif" font-size="14.00">&#45; validateInss(member: Member)</text>
<polygon fill="black" stroke="black" points="872,-744.2 872,-744.2 1220,-744.2 1220,-744.2 872,-744.2"/>
<polygon fill="black" stroke="black" points="872,-696.2 872,-696.2 1220,-696.2 1220,-696.2 872,-696.2"/>
<polygon fill="none" stroke="black" points="872,-479.2 872,-769.2 1220,-769.2 1220,-479.2 872,-479.2"/>
</g>
<!-- MemberRepository1296305264&#45;&gt;Member1296305264 -->
<g id="edge13" class="edge">
<title>MemberRepository1296305264&#45;&gt;Member1296305264</title>
<path fill="none" stroke="black" d="M1029.78,-478.99C1026.48,-449.67 1024,-427.6 1024,-427.6 1024,-427.6 1009.17,-417.44 988.86,-403.54"/>
<polygon fill="black" stroke="black" points="990.73,-400.58 980.5,-397.82 986.78,-406.36 990.73,-400.58"/>
<text text-anchor="middle" x="1062.77" y="-448.6" font-family="Times New Roman,serif" font-size="14.00">memberMap</text>
<text text-anchor="middle" x="1062.77" y="-431.8" font-family="Times New Roman,serif" font-size="14.00">[0..*]</text>
</g>
<!-- MemberRepository1296305264&#45;&gt;MemberBuilder157299192 -->
<g id="edge14" class="edge">
<title>MemberRepository1296305264&#45;&gt;MemberBuilder157299192</title>
<path fill="none" stroke="black" d="M871.83,-486.15C866.23,-481.74 863,-479.2 863,-479.2 863,-479.2 772.66,-461.2 772.66,-461.2 772.66,-461.2 754,-427.6 754,-427.6 754,-427.6 745.45,-418.32 733.51,-405.37"/>
<polygon fill="black" stroke="black" points="735.91,-402.8 726.56,-397.82 730.76,-407.55 735.91,-402.8"/>
<text text-anchor="middle" x="895.67" y="-440.2" font-family="Times New Roman,serif" font-size="14.00">createAndInitializeMemberMap() &#45;&gt; build()</text>
</g>
<!-- MemberService1296305264&#45;&gt;KeycloakService1165648183 -->
<g id="edge15" class="edge">
<title>MemberService1296305264&#45;&gt;KeycloakService1165648183</title>
<path fill="none" stroke="black" d="M565.01,-838.73C530.65,-815.59 491.37,-789.13 452.44,-762.91"/>
<polygon fill="black" stroke="black" points="454.39,-760 444.14,-757.31 450.48,-765.8 454.39,-760"/>
<text text-anchor="middle" x="580.26" y="-808.2" font-family="Times New Roman,serif" font-size="14.00">keycloakService</text>
<text text-anchor="middle" x="580.26" y="-791.4" font-family="Times New Roman,serif" font-size="14.00">[0..1]</text>
</g>
<!-- MemberService1296305264&#45;&gt;MemberMapper1296305264 -->
<g id="edge16" class="edge">
<title>MemberService1296305264&#45;&gt;MemberMapper1296305264</title>
<path fill="none" stroke="black" d="M672,-838.73C672,-790.75 672,-728.51 672,-683.62"/>
<polygon fill="black" stroke="black" points="675.5,-683.46 672,-673.46 668.5,-683.46 675.5,-683.46"/>
<text text-anchor="middle" x="716.7" y="-808.2" font-family="Times New Roman,serif" font-size="14.00">memberMapper</text>
<text text-anchor="middle" x="716.7" y="-791.4" font-family="Times New Roman,serif" font-size="14.00">[0..1]</text>
</g>
<!-- MemberService1296305264&#45;&gt;MemberRepository1296305264 -->
<g id="edge17" class="edge">
<title>MemberService1296305264&#45;&gt;MemberRepository1296305264</title>
<path fill="none" stroke="black" d="M769.18,-838.76C816.36,-803.78 863,-769.2 863,-769.2 863,-769.2 863.32,-768.95 863.92,-768.48"/>
<polygon fill="black" stroke="black" points="866.13,-771.19 871.83,-762.25 861.8,-765.69 866.13,-771.19"/>
<text text-anchor="middle" x="888.65" y="-808.2" font-family="Times New Roman,serif" font-size="14.00">memberRepository</text>
<text text-anchor="middle" x="888.65" y="-791.4" font-family="Times New Roman,serif" font-size="14.00">[0..1]</text>
</g>
</g>
</svg>
